<svg width="20" height="20" viewBox="0 0 20 20" fill="none" xmlns="http://www.w3.org/2000/svg">
<path d="M17.46 2.54041C16.2954 1.37581 14.4072 1.37586 13.2426 2.54053L3.28427 12.5001C2.94567 12.8387 2.70767 13.2647 2.59675 13.7305L1.68376 17.5651C1.63349 17.7762 1.69635 17.9983 1.84982 18.1518C2.00329 18.3052 2.22539 18.3681 2.43652 18.3178L6.2709 17.4049C6.7369 17.2939 7.16297 17.0558 7.50167 16.7171L17.4601 6.7575C18.6245 5.59293 18.6245 3.70491 17.46 2.54041ZM14.1266 3.42436C14.8029 2.7479 15.8997 2.74786 16.5761 3.42429C17.2525 4.10066 17.2525 5.19726 16.5762 5.87367L15.8334 6.61654L13.3839 4.16709L14.1266 3.42436ZM12.5001 5.05103L14.9495 7.50048L6.61774 15.8333C6.44261 16.0084 6.22232 16.1315 5.98137 16.1889L3.135 16.8666L3.81275 14.02C3.8701 13.7792 3.99315 13.559 4.16821 13.3839L12.5001 5.05103Z" fill="white"/>
</svg>
