<svg width="24" height="25" viewBox="0 0 24 25" fill="none" xmlns="http://www.w3.org/2000/svg">
<path d="M3.31573 14.2811L4.04591 14.1098L3.31573 14.2811ZM3.31573 8.824L4.04591 8.99528L3.31573 8.824ZM18.7893 8.824L19.5195 8.65273L18.7893 8.824ZM18.7893 14.281L19.5195 14.4523L18.7893 14.281ZM13.781 19.2893L13.6098 18.5591L13.781 19.2893ZM8.324 19.2893L8.15273 20.0195L8.324 19.2893ZM8.324 3.81573L8.15272 3.08555L8.324 3.81573ZM13.781 3.81573L13.9523 3.08555L13.781 3.81573ZM20.4697 22.0303C20.7626 22.3232 21.2374 22.3232 21.5303 22.0303C21.8232 21.7374 21.8232 21.2626 21.5303 20.9697L20.4697 22.0303ZM4.04591 14.1098C3.65136 12.4278 3.65136 10.6773 4.04591 8.99528L2.58555 8.65272C2.13815 10.56 2.13815 12.545 2.58555 14.4523L4.04591 14.1098ZM18.0591 8.99528C18.4537 10.6773 18.4537 12.4278 18.0591 14.1098L19.5195 14.4523C19.9669 12.545 19.9669 10.56 19.5195 8.65273L18.0591 8.99528ZM13.6098 18.5591C11.9278 18.9537 10.1773 18.9537 8.49528 18.5591L8.15273 20.0195C10.06 20.4669 12.045 20.4669 13.9523 20.0195L13.6098 18.5591ZM8.49528 4.54591C10.1773 4.15136 11.9278 4.15136 13.6098 4.54591L13.9523 3.08555C12.045 2.63815 10.06 2.63815 8.15272 3.08555L8.49528 4.54591ZM8.49528 18.5591C6.28757 18.0413 4.56377 16.3175 4.04591 14.1098L2.58555 14.4523C3.23351 17.2147 5.39038 19.3715 8.15273 20.0195L8.49528 18.5591ZM13.9523 20.0195C16.7147 19.3715 18.8715 17.2147 19.5195 14.4523L18.0591 14.1098C17.5413 16.3175 15.8175 18.0413 13.6098 18.5591L13.9523 20.0195ZM13.6098 4.54591C15.8175 5.06377 17.5413 6.78757 18.0591 8.99528L19.5195 8.65273C18.8715 5.89037 16.7147 3.73351 13.9523 3.08555L13.6098 4.54591ZM8.15272 3.08555C5.39037 3.73351 3.23351 5.89037 2.58555 8.65272L4.04591 8.99528C4.56377 6.78756 6.28757 5.06377 8.49528 4.54591L8.15272 3.08555ZM16.8048 18.3655L20.4697 22.0303L21.5303 20.9697L17.8655 17.3048L16.8048 18.3655Z" fill="white"/>
</svg>
